<?xml version="1.0" encoding="UTF-8"?>
<svg viewBox="316.547 261.959 210.006 71.331" width="600" height="204" xmlns="http://www.w3.org/2000/svg" xmlns:xlink="http://www.w3.org/1999/xlink">
<path fill-rule="nonzero" fill="rgb(13.725281%, 12.156677%, 12.548828%)" fill-opacity="1" d="M 447.539062 286.675781 C 450.039062 286.675781 451.289062 285.179688 451.289062 282.800781 L 451.289062 282.691406 C 451.289062 280.449219 450.203125 278.875 447.523438 278.875 L 446.207031 278.875 L 446.207031 286.675781 Z M 445.023438 277.921875 L 447.59375 277.921875 C 450.9375 277.921875 452.511719 279.988281 452.511719 282.691406 L 452.511719 282.816406 C 452.511719 285.507812 450.964844 287.640625 447.566406 287.640625 L 445.023438 287.640625 Z M 445.023438 277.921875 "/>
<path fill-rule="nonzero" fill="rgb(13.725281%, 12.156677%, 12.548828%)" fill-opacity="1" d="M 459.246094 283.398438 C 459.136719 281.933594 458.378906 281.347656 457.207031 281.347656 C 456.050781 281.347656 455.277344 282.136719 455.085938 283.398438 Z M 453.875 284.160156 L 453.875 284.050781 C 453.875 281.90625 455.25 280.410156 457.207031 280.410156 C 458.851562 280.410156 460.402344 281.402344 460.402344 283.941406 L 460.402344 284.3125 L 455.046875 284.3125 C 455.101562 285.929688 455.875 286.824219 457.328125 286.824219 C 458.429688 286.824219 459.070312 286.417969 459.21875 285.589844 L 460.347656 285.589844 C 460.101562 287.015625 458.921875 287.761719 457.316406 287.761719 C 455.304688 287.761719 453.875 286.351562 453.875 284.160156 "/>
<path fill-rule="nonzero" fill="rgb(13.725281%, 12.156677%, 12.548828%)" fill-opacity="1" d="M 461.617188 285.453125 L 462.71875 285.453125 C 462.800781 286.296875 463.25 286.824219 464.390625 286.824219 C 465.464844 286.824219 465.941406 286.457031 465.941406 285.699219 C 465.941406 284.949219 465.382812 284.703125 464.28125 284.5 C 462.433594 284.160156 461.808594 283.644531 461.808594 282.40625 C 461.808594 281.089844 463.097656 280.410156 464.214844 280.410156 C 465.492188 280.410156 466.59375 280.925781 466.785156 282.460938 L 465.695312 282.460938 C 465.53125 281.6875 465.097656 281.347656 464.199219 281.347656 C 463.382812 281.347656 462.855469 281.753906 462.855469 282.367188 C 462.855469 283.003906 463.207031 283.265625 464.511719 283.496094 C 465.980469 283.769531 467.015625 284.09375 467.015625 285.601562 C 467.015625 286.894531 466.132812 287.765625 464.402344 287.765625 C 462.703125 287.765625 461.683594 286.90625 461.617188 285.453125 "/>
<path fill-rule="nonzero" fill="rgb(13.725281%, 12.156677%, 12.548828%)" fill-opacity="1" d="M 468.757812 280.53125 L 469.886719 280.53125 L 469.886719 287.640625 L 468.757812 287.640625 Z M 468.554688 278.300781 C 468.554688 277.894531 468.894531 277.554688 469.300781 277.554688 C 469.707031 277.554688 470.046875 277.894531 470.046875 278.300781 C 470.046875 278.710938 469.707031 279.050781 469.300781 279.050781 C 468.894531 279.050781 468.554688 278.710938 468.554688 278.300781 "/>
<path fill-rule="nonzero" fill="rgb(13.725281%, 12.156677%, 12.548828%)" fill-opacity="1" d="M 477.351562 283.957031 L 477.351562 283.863281 C 477.351562 282.269531 476.480469 281.347656 475.09375 281.347656 C 473.679688 281.347656 472.835938 282.394531 472.835938 283.890625 L 472.835938 284 C 472.835938 285.546875 473.828125 286.472656 475.027344 286.472656 C 476.34375 286.472656 477.351562 285.546875 477.351562 283.957031 M 471.816406 288.050781 L 472.972656 288.050781 C 473.136719 288.867188 473.816406 289.285156 475.027344 289.285156 C 476.425781 289.285156 477.308594 288.621094 477.308594 287.097656 L 477.308594 286.066406 C 476.902344 286.757812 475.9375 287.410156 474.902344 287.410156 C 473.042969 287.410156 471.667969 285.996094 471.667969 284.039062 L 471.667969 283.945312 C 471.667969 282.015625 473.027344 280.410156 474.984375 280.410156 C 476.167969 280.410156 476.902344 280.980469 477.308594 281.671875 L 477.308594 280.53125 L 478.4375 280.53125 L 478.4375 287.164062 C 478.425781 289.230469 477.023438 290.238281 475.039062 290.238281 C 472.933594 290.238281 472.007812 289.246094 471.816406 288.050781 "/>
<path fill-rule="nonzero" fill="rgb(13.725281%, 12.156677%, 12.548828%)" fill-opacity="1" d="M 480.726562 280.53125 L 481.855469 280.53125 L 481.855469 281.660156 C 482.179688 280.992188 482.96875 280.410156 484.136719 280.410156 C 485.605469 280.410156 486.640625 281.210938 486.640625 283.277344 L 486.640625 287.640625 L 485.511719 287.640625 L 485.511719 283.195312 C 485.511719 281.945312 484.980469 281.386719 483.839844 281.386719 C 482.792969 281.386719 481.855469 282.054688 481.855469 283.332031 L 481.855469 287.640625 L 480.726562 287.640625 Z M 480.726562 280.53125 "/>
<path fill-rule="nonzero" fill="rgb(13.725281%, 12.156677%, 12.548828%)" fill-opacity="1" d="M 450.230469 302.28125 L 450.230469 302.1875 C 450.230469 300.542969 449.320312 299.480469 447.90625 299.480469 C 446.476562 299.480469 445.582031 300.542969 445.582031 302.175781 L 445.582031 302.28125 C 445.582031 303.898438 446.464844 304.960938 447.90625 304.960938 C 449.332031 304.960938 450.230469 303.886719 450.230469 302.28125 M 444.410156 302.28125 L 444.410156 302.175781 C 444.410156 300.039062 445.890625 298.542969 447.90625 298.542969 C 449.917969 298.542969 451.398438 300.027344 451.398438 302.160156 L 451.398438 302.269531 C 451.398438 304.417969 449.917969 305.898438 447.890625 305.898438 C 445.863281 305.898438 444.410156 304.363281 444.410156 302.28125 "/>
<path fill-rule="nonzero" fill="rgb(13.725281%, 12.156677%, 12.548828%)" fill-opacity="1" d="M 458.308594 302.09375 L 458.308594 301.996094 C 458.308594 300.40625 457.4375 299.484375 456.050781 299.484375 C 454.636719 299.484375 453.792969 300.53125 453.792969 302.027344 L 453.792969 302.132812 C 453.792969 303.683594 454.789062 304.609375 455.984375 304.609375 C 457.300781 304.609375 458.308594 303.683594 458.308594 302.09375 M 452.773438 306.183594 L 453.929688 306.183594 C 454.09375 307 454.773438 307.421875 455.984375 307.421875 C 457.382812 307.421875 458.265625 306.757812 458.265625 305.234375 L 458.265625 304.199219 C 457.859375 304.894531 456.894531 305.546875 455.859375 305.546875 C 454 305.546875 452.625 304.132812 452.625 302.171875 L 452.625 302.078125 C 452.625 300.148438 453.984375 298.542969 455.941406 298.542969 C 457.125 298.542969 457.859375 299.113281 458.265625 299.808594 L 458.265625 298.664062 L 459.394531 298.664062 L 459.394531 305.300781 C 459.382812 307.367188 457.980469 308.371094 455.996094 308.371094 C 453.890625 308.371094 452.964844 307.378906 452.773438 306.183594 "/>
<path fill-rule="nonzero" fill="rgb(13.725281%, 12.156677%, 12.548828%)" fill-opacity="1" d="M 469.566406 303.289062 L 469.566406 302.40625 L 468.589844 302.40625 C 467.160156 302.40625 466.113281 302.757812 466.113281 303.804688 C 466.113281 304.539062 466.46875 305.003906 467.460938 305.003906 C 468.65625 305.003906 469.566406 304.390625 469.566406 303.289062 M 464.988281 303.804688 C 464.988281 302.160156 466.726562 301.601562 468.546875 301.601562 L 469.566406 301.601562 L 469.566406 301.085938 C 469.566406 299.957031 469.132812 299.480469 468.046875 299.480469 C 467.066406 299.480469 466.523438 299.890625 466.414062 300.761719 L 465.285156 300.761719 C 465.433594 299.140625 466.726562 298.546875 468.097656 298.546875 C 469.460938 298.546875 470.695312 299.101562 470.695312 301.085938 L 470.695312 305.777344 L 469.566406 305.777344 L 469.566406 304.878906 C 469.039062 305.546875 468.398438 305.898438 467.351562 305.898438 C 466.035156 305.898438 464.988281 305.261719 464.988281 303.804688 "/>
<path fill-rule="nonzero" fill="rgb(13.725281%, 12.156677%, 12.548828%)" fill-opacity="1" d="M 472.917969 298.667969 L 474.046875 298.667969 L 474.046875 299.945312 C 474.492188 299.140625 475.105469 298.585938 476.382812 298.542969 L 476.382812 299.605469 C 474.953125 299.671875 474.046875 300.121094 474.046875 301.875 L 474.046875 305.777344 L 472.917969 305.777344 Z M 472.917969 298.667969 "/>
<path fill-rule="nonzero" fill="rgb(13.725281%, 12.156677%, 12.548828%)" fill-opacity="1" d="M 478.03125 295.269531 L 479.160156 295.269531 L 479.160156 301.941406 L 482.109375 298.667969 L 483.425781 298.667969 L 480.382812 301.96875 L 483.683594 305.777344 L 482.3125 305.777344 L 479.160156 302.09375 L 479.160156 305.777344 L 478.03125 305.777344 Z M 478.03125 295.269531 "/>
<path fill-rule="nonzero" fill="rgb(13.725281%, 12.156677%, 12.548828%)" fill-opacity="1" d="M 485.074219 298.664062 L 486.203125 298.664062 L 486.203125 305.777344 L 485.074219 305.777344 Z M 484.871094 296.4375 C 484.871094 296.03125 485.210938 295.6875 485.617188 295.6875 C 486.027344 295.6875 486.367188 296.03125 486.367188 296.4375 C 486.367188 296.84375 486.027344 297.183594 485.617188 297.183594 C 485.210938 297.183594 484.871094 296.84375 484.871094 296.4375 "/>
<path fill-rule="nonzero" fill="rgb(13.725281%, 12.156677%, 12.548828%)" fill-opacity="1" d="M 488.761719 303.996094 L 488.761719 299.617188 L 487.742188 299.617188 L 487.742188 298.667969 L 488.761719 298.667969 L 488.761719 297.050781 L 489.890625 297.050781 L 489.890625 298.667969 L 491.546875 298.667969 L 491.546875 299.617188 L 489.890625 299.617188 L 489.890625 303.886719 C 489.890625 304.582031 490.203125 304.921875 490.773438 304.921875 C 491.125 304.921875 491.398438 304.867188 491.644531 304.769531 L 491.644531 305.722656 C 491.410156 305.804688 491.140625 305.871094 490.679688 305.871094 C 489.386719 305.871094 488.761719 305.109375 488.761719 303.996094 "/>
<path fill-rule="nonzero" fill="rgb(13.725281%, 12.156677%, 12.548828%)" fill-opacity="1" d="M 498.183594 301.535156 C 498.078125 300.066406 497.316406 299.480469 496.144531 299.480469 C 494.992188 299.480469 494.214844 300.269531 494.027344 301.535156 Z M 492.816406 302.296875 L 492.816406 302.1875 C 492.816406 300.039062 494.1875 298.542969 496.144531 298.542969 C 497.789062 298.542969 499.339844 299.535156 499.339844 302.078125 L 499.339844 302.445312 L 493.984375 302.445312 C 494.039062 304.0625 494.8125 304.960938 496.269531 304.960938 C 497.371094 304.960938 498.007812 304.554688 498.160156 303.722656 L 499.285156 303.722656 C 499.042969 305.152344 497.859375 305.898438 496.253906 305.898438 C 494.242188 305.898438 492.816406 304.484375 492.816406 302.296875 "/>
<path fill-rule="nonzero" fill="rgb(13.725281%, 12.156677%, 12.548828%)" fill-opacity="1" d="M 501.070312 295.269531 L 502.199219 295.269531 L 502.199219 301.941406 L 505.148438 298.667969 L 506.46875 298.667969 L 503.421875 301.96875 L 506.726562 305.777344 L 505.351562 305.777344 L 502.199219 302.09375 L 502.199219 305.777344 L 501.070312 305.777344 Z M 501.070312 295.269531 "/>
<path fill-rule="nonzero" fill="rgb(13.725281%, 12.156677%, 12.548828%)" fill-opacity="1" d="M 508.332031 303.996094 L 508.332031 299.617188 L 507.3125 299.617188 L 507.3125 298.667969 L 508.332031 298.667969 L 508.332031 297.050781 L 509.460938 297.050781 L 509.460938 298.667969 L 511.121094 298.667969 L 511.121094 299.617188 L 509.460938 299.617188 L 509.460938 303.886719 C 509.460938 304.582031 509.773438 304.921875 510.34375 304.921875 C 510.699219 304.921875 510.96875 304.867188 511.214844 304.769531 L 511.214844 305.722656 C 510.984375 305.804688 510.710938 305.871094 510.25 305.871094 C 508.957031 305.871094 508.332031 305.109375 508.332031 303.996094 "/>
<path fill-rule="nonzero" fill="rgb(13.725281%, 12.156677%, 12.548828%)" fill-opacity="1" d="M 512.847656 303.167969 L 512.847656 298.664062 L 513.976562 298.664062 L 513.976562 303.113281 C 513.976562 304.363281 514.507812 304.921875 515.621094 304.921875 C 516.628906 304.921875 517.578125 304.253906 517.578125 302.976562 L 517.578125 298.664062 L 518.707031 298.664062 L 518.707031 305.777344 L 517.578125 305.777344 L 517.578125 304.648438 C 517.253906 305.3125 516.464844 305.898438 515.324219 305.898438 C 513.910156 305.898438 512.847656 305.125 512.847656 303.167969 "/>
<path fill-rule="nonzero" fill="rgb(13.725281%, 12.156677%, 12.548828%)" fill-opacity="1" d="M 520.996094 298.667969 L 522.125 298.667969 L 522.125 299.945312 C 522.574219 299.140625 523.183594 298.585938 524.464844 298.542969 L 524.464844 299.605469 C 523.035156 299.671875 522.125 300.121094 522.125 301.875 L 522.125 305.777344 L 520.996094 305.777344 Z M 520.996094 298.667969 "/>
<path fill-rule="nonzero" fill="rgb(13.725281%, 12.156677%, 12.548828%)" fill-opacity="1" d="M 445.023438 314.191406 L 446.558594 314.191406 L 451.289062 322.226562 L 451.289062 314.191406 L 452.417969 314.191406 L 452.417969 323.910156 L 451.058594 323.910156 L 446.152344 315.578125 L 446.152344 323.910156 L 445.023438 323.910156 Z M 445.023438 314.191406 "/>
<path fill-rule="nonzero" fill="rgb(13.725281%, 12.156677%, 12.548828%)" fill-opacity="1" d="M 460.078125 320.417969 L 460.078125 320.324219 C 460.078125 318.679688 459.167969 317.617188 457.753906 317.617188 C 456.324219 317.617188 455.429688 318.679688 455.429688 320.308594 L 455.429688 320.417969 C 455.429688 322.035156 456.3125 323.097656 457.753906 323.097656 C 459.179688 323.097656 460.078125 322.023438 460.078125 320.417969 M 454.257812 320.417969 L 454.257812 320.308594 C 454.257812 318.175781 455.738281 316.679688 457.753906 316.679688 C 459.765625 316.679688 461.246094 318.160156 461.246094 320.296875 L 461.246094 320.402344 C 461.246094 322.554688 459.765625 324.035156 457.738281 324.035156 C 455.710938 324.035156 454.257812 322.5 454.257812 320.417969 "/>
<path fill-rule="nonzero" fill="rgb(13.725281%, 12.156677%, 12.548828%)" fill-opacity="1" d="M 463.003906 316.800781 L 464.132812 316.800781 L 464.132812 318.078125 C 464.582031 317.277344 465.191406 316.71875 466.46875 316.679688 L 466.46875 317.738281 C 465.042969 317.808594 464.132812 318.257812 464.132812 320.011719 L 464.132812 323.910156 L 463.003906 323.910156 Z M 463.003906 316.800781 "/>
<path fill-rule="nonzero" fill="rgb(13.725281%, 12.156677%, 12.548828%)" fill-opacity="1" d="M 473.066406 320.226562 L 473.066406 320.132812 C 473.066406 318.542969 472.195312 317.617188 470.808594 317.617188 C 469.394531 317.617188 468.550781 318.664062 468.550781 320.160156 L 468.550781 320.269531 C 468.550781 321.816406 469.542969 322.742188 470.742188 322.742188 C 472.058594 322.742188 473.066406 321.816406 473.066406 320.226562 M 467.53125 324.320312 L 468.6875 324.320312 C 468.851562 325.136719 469.53125 325.558594 470.742188 325.558594 C 472.140625 325.558594 473.023438 324.890625 473.023438 323.367188 L 473.023438 322.335938 C 472.617188 323.027344 471.652344 323.679688 470.617188 323.679688 C 468.757812 323.679688 467.382812 322.265625 467.382812 320.308594 L 467.382812 320.214844 C 467.382812 318.285156 468.742188 316.679688 470.699219 316.679688 C 471.882812 316.679688 472.617188 317.25 473.023438 317.945312 L 473.023438 316.800781 L 474.152344 316.800781 L 474.152344 323.4375 C 474.140625 325.503906 472.738281 326.507812 470.753906 326.507812 C 468.648438 326.507812 467.722656 325.515625 467.53125 324.320312 "/>
<path fill-rule="nonzero" fill="rgb(13.725281%, 12.156677%, 12.548828%)" fill-opacity="1" d="M 481.28125 319.671875 C 481.171875 318.203125 480.410156 317.617188 479.242188 317.617188 C 478.085938 317.617188 477.3125 318.40625 477.121094 319.671875 Z M 475.910156 320.433594 L 475.910156 320.324219 C 475.910156 318.175781 477.285156 316.679688 479.242188 316.679688 C 480.886719 316.679688 482.4375 317.671875 482.4375 320.214844 L 482.4375 320.582031 L 477.082031 320.582031 C 477.136719 322.199219 477.910156 323.097656 479.363281 323.097656 C 480.464844 323.097656 481.105469 322.6875 481.253906 321.859375 L 482.382812 321.859375 C 482.136719 323.285156 480.957031 324.035156 479.351562 324.035156 C 477.339844 324.035156 475.910156 322.621094 475.910156 320.433594 "/>
<path fill-rule="nonzero" fill="rgb(13.725281%, 12.156677%, 12.548828%)" fill-opacity="1" d="M 327.570312 314.351562 C 331.84375 315.429688 333.859375 313.800781 333.859375 309.902344 L 333.859375 309.691406 C 333.859375 305.816406 331.992188 303.261719 327.511719 302.132812 L 323.46875 301.113281 L 323.46875 313.316406 Z M 318.664062 296.578125 L 327.75 298.871094 C 335.195312 300.746094 338.875 305.257812 338.875 310.898438 L 338.875 311.113281 C 338.875 316.753906 335.164062 319.585938 327.71875 317.710938 L 318.664062 315.425781 Z M 318.664062 296.578125 "/>
<path fill-rule="nonzero" fill="rgb(13.725281%, 12.156677%, 12.548828%)" fill-opacity="1" d="M 359.875 275.730469 L 359.875 275.519531 C 359.875 271.855469 357.679688 268.796875 353.972656 267.863281 C 350.292969 266.933594 348.070312 268.769531 348.070312 272.566406 L 348.070312 272.777344 C 348.070312 276.625 350.5625 279.628906 354.03125 280.503906 C 357.621094 281.40625 359.875 279.523438 359.875 275.730469 M 343.054688 271.542969 L 343.054688 271.328125 C 343.054688 265.714844 347.683594 262.902344 353.972656 264.488281 C 360.351562 266.09375 364.890625 271.0625 364.890625 276.730469 L 364.890625 276.941406 C 364.890625 282.554688 360.558594 285.550781 353.941406 283.882812 C 347.296875 282.207031 343.054688 277.050781 343.054688 271.542969 "/>
<path fill-rule="nonzero" fill="rgb(13.725281%, 12.156677%, 12.548828%)" fill-opacity="1" d="M 367.441406 318.414062 L 367.441406 318.203125 C 367.441406 312.539062 371.976562 309.726562 378.238281 311.304688 C 382.953125 312.496094 387.167969 315.480469 387.671875 320.273438 L 382.894531 319.070312 C 382.480469 316.75 380.847656 315.339844 378.296875 314.695312 C 374.617188 313.769531 372.453125 315.671875 372.453125 319.519531 L 372.453125 319.730469 C 372.453125 323.371094 374.203125 326.421875 378.355469 327.46875 C 381.914062 328.367188 383.367188 326.914062 383.457031 324.773438 L 378.683594 323.570312 L 378.683594 320.460938 L 388.203125 322.859375 L 388.203125 324.863281 C 388.203125 329.898438 384.585938 332.335938 378.238281 330.734375 C 371.296875 328.984375 367.441406 324.003906 367.441406 318.414062 "/>
<path fill-rule="nonzero" fill="rgb(13.725281%, 12.156677%, 12.548828%)" fill-opacity="1" d="M 399.886719 287.941406 L 402.890625 280.667969 L 403.289062 280.765625 L 406.285156 289.554688 Z M 408.972656 297.453125 L 413.75 298.660156 L 406.261719 277.921875 L 399.894531 276.316406 L 392.441406 293.285156 L 397.199219 294.484375 L 398.742188 290.683594 L 407.429688 292.871094 Z M 408.972656 297.453125 "/>
</svg>
